<?xml version="1.0" standalone="no"?>
<!DOCTYPE svg PUBLIC "-//W3C//DTD SVG 20010904//EN"
 "http://www.w3.org/TR/2001/REC-SVG-20010904/DTD/svg10.dtd">
<svg version="1.0" xmlns="http://www.w3.org/2000/svg"
 width="225.000000pt" height="224.000000pt" viewBox="0 0 225.000000 224.000000"
 preserveAspectRatio="xMidYMid meet">
<metadata>
Created by potrace 1.16, written by Peter Selinger 2001-2019
</metadata>
<g transform="translate(0.000000,224.000000) scale(0.100000,-0.100000)"
fill="#000000" stroke="none">
<path d="M680 1904 c-239 -145 -440 -268 -447 -272 -8 -4 133 -91 360 -223
l372 -216 3 -391 c1 -216 0 -392 -4 -392 -5 0 -604 347 -711 412 l-33 20 0
-94 0 -93 367 -215 c202 -118 405 -239 451 -267 46 -29 86 -53 88 -53 2 0 3
261 2 581 l-3 581 -293 168 c-162 93 -296 171 -299 173 -8 9 598 367 610 360
7 -3 139 -85 295 -181 l283 -175 -213 -126 -213 -127 -3 -98 c-2 -78 0 -96 10
-90 7 5 171 106 365 225 l352 216 -439 271 c-241 150 -444 272 -452 271 -7 0
-209 -120 -448 -265z"/>
<path d="M1645 1216 l-350 -223 -3 -91 c-1 -51 0 -92 3 -92 3 0 126 77 272
171 146 94 272 173 279 176 12 4 14 -35 14 -234 l0 -239 -282 -190 -283 -189
-3 -93 c-1 -50 -1 -92 2 -92 3 0 165 106 361 236 l355 236 0 424 c0 233 -3
424 -7 423 -5 0 -165 -101 -358 -223z"/>
<path d="M220 1232 l0 -88 203 -114 c111 -63 243 -138 292 -166 l90 -52 3 86
c2 47 -1 89 -5 93 -9 8 -573 329 -579 329 -2 0 -4 -40 -4 -88z"/>
</g>
</svg>
