<?xml version="1.0" standalone="no"?>
<!DOCTYPE svg PUBLIC "-//W3C//DTD SVG 20010904//EN"
 "http://www.w3.org/TR/2001/REC-SVG-20010904/DTD/svg10.dtd">
<svg version="1.0" xmlns="http://www.w3.org/2000/svg"
 width="926.000000pt" height="1280.000000pt" viewBox="0 0 926.000000 1280.000000"
 preserveAspectRatio="xMidYMid meet">
<metadata>
Created by potrace 1.16, written by Peter Selinger 2001-2019
</metadata>
<g transform="translate(0.000000,1280.000000) scale(0.100000,-0.100000)"
fill="#000000" stroke="none">
<path d="M5383 11917 c-197 -199 -405 -409 -461 -467 l-102 -105 0 75 0 75
361 361 c299 299 360 365 357 385 -2 17 -11 25 -27 27 -20 3 -78 -51 -357
-335 l-333 -338 -1 75 0 74 241 242 c220 221 240 244 230 263 -7 12 -19 21
-29 21 -9 0 -112 -96 -229 -212 l-213 -213 0 70 0 70 116 117 c89 91 115 123
112 140 -2 16 -11 24 -28 26 -20 2 -42 -14 -109 -83 -46 -47 -89 -85 -96 -85
-6 0 -24 13 -40 30 l-28 29 32 37 c19 20 30 43 27 51 -3 8 -6 17 -6 19 0 2
-10 4 -23 4 -13 0 -36 -13 -52 -30 -22 -23 -32 -27 -42 -19 -11 10 -13 -114
-13 -730 l0 -741 75 0 75 0 383 387 c210 214 492 500 627 636 l245 248 3 49
c2 28 1 50 -1 50 -4 0 -526 -524 -951 -955 l-305 -310 -1 70 0 70 513 520
c734 746 700 710 692 734 -17 53 -39 33 -626 -561 l-574 -581 -3 67 -3 67 478
485 c315 320 479 494 481 509 2 15 -4 27 -16 34 -17 9 -63 -34 -379 -352z"/>
<path d="M2483 12198 c-76 -77 -87 -100 -52 -118 18 -10 30 -2 102 69 70 69
80 83 71 98 -22 36 -47 26 -121 -49z"/>
<path d="M2604 12075 c-195 -202 -218 -237 -164 -243 21 -2 58 30 218 192 155
156 193 199 190 218 -2 16 -11 24 -29 26 -22 3 -54 -26 -215 -193z"/>
<path d="M2730 11955 c-173 -173 -316 -323 -318 -333 -4 -24 22 -45 45 -38 10
3 155 146 323 318 241 246 305 317 305 337 0 65 -33 39 -355 -284z"/>
<path d="M2847 11827 c-240 -245 -437 -451 -437 -459 0 -17 20 -38 36 -38 10
0 672 660 833 832 67 71 76 101 30 106 -22 3 -88 -60 -462 -441z"/>
<path d="M3460 12200 c-36 -37 -287 -291 -558 -564 -509 -513 -516 -522 -469
-550 16 -10 88 60 573 549 305 308 562 570 570 583 13 18 14 25 4 37 -23 28
-54 13 -120 -55z"/>
<path d="M3287 11778 c-267 -271 -574 -582 -682 -690 -157 -158 -196 -202
-193 -220 2 -15 11 -24 27 -26 20 -3 67 40 279 255 140 142 437 443 661 668
482 487 455 458 446 484 -16 53 -41 31 -538 -471z"/>
<path d="M3870 12120 c-80 -82 -417 -424 -749 -760 -581 -587 -602 -610 -570
-611 19 -1 42 0 52 1 10 1 214 200 455 443 240 243 566 573 725 733 238 240
288 295 285 315 -2 17 -10 25 -28 26 -20 2 -52 -25 -170 -147z"/>
<path d="M4235 12240 c-19 -20 -32 -27 -39 -20 -5 5 -14 10 -18 10 -4 0 -8
-333 -8 -740 l0 -740 83 0 82 0 118 119 c115 117 117 120 117 165 0 25 -3 46
-7 46 -4 0 -61 -53 -125 -117 l-118 -118 0 69 0 69 125 127 c118 120 125 130
125 167 0 22 -3 43 -7 47 -4 4 -60 -46 -125 -111 l-118 -118 0 70 0 69 125
126 c120 121 125 128 125 168 0 28 -4 42 -13 42 -8 0 -60 -49 -117 -110 -56
-60 -106 -110 -111 -110 -5 0 -9 29 -9 65 l0 65 123 126 c115 118 122 128 125
170 2 24 -1 44 -5 44 -5 0 -58 -49 -118 -110 -60 -60 -113 -110 -117 -110 -5
0 -8 28 -8 63 l0 62 126 128 c119 121 125 129 123 165 -1 20 -5 41 -7 46 -3 4
-58 -45 -123 -110 l-118 -117 0 70 0 70 120 119 c97 96 119 124 117 144 -2 18
-10 26 -27 28 -18 3 -42 -16 -112 -87 l-90 -90 -34 37 -34 37 31 31 c22 24 28
38 23 53 -9 31 -46 26 -80 -9z"/>
<path d="M6199 12247 l-25 -22 1 -735 0 -735 78 -3 c75 -3 77 -2 77 20 0 16
36 59 120 143 l120 120 0 50 0 50 -120 -120 -120 -120 0 71 0 70 120 124 119
125 1 50 0 50 -120 -120 -120 -120 0 70 0 71 120 122 120 122 0 52 0 53 -120
-120 -120 -120 0 70 0 70 120 120 c120 119 120 120 120 167 0 27 -3 48 -7 48
-5 0 -57 -50 -118 -110 l-110 -111 -3 67 -3 68 121 120 c120 121 120 121 120
169 0 26 -2 47 -4 47 -3 0 -57 -53 -120 -117 l-116 -118 0 69 0 69 96 103 c75
82 94 108 89 124 -12 38 -47 23 -127 -57 l-78 -78 -37 38 c-33 32 -35 38 -22
49 22 18 30 43 16 57 -17 17 -42 13 -68 -12z"/>
<path d="M6687 12252 c-16 -17 -17 -77 -17 -760 l0 -742 75 0 75 0 0 33 c0 31
54 87 706 736 730 728 742 741 674 749 -21 2 -128 -101 -695 -668 -368 -368
-674 -670 -678 -670 -4 0 -7 26 -5 58 l3 59 580 587 c319 323 582 592 583 597
6 15 -18 39 -38 39 -11 0 -251 -235 -574 -562 l-556 -562 0 72 0 72 399 402
c220 222 427 431 461 465 46 46 61 68 58 85 -2 16 -11 24 -28 26 -21 2 -91
-64 -455 -434 l-430 -437 -3 67 -3 67 333 340 c183 187 336 346 340 353 12 22
-2 46 -27 46 -16 0 -108 -87 -329 -310 -169 -170 -309 -310 -311 -310 -3 0 -5
30 -5 67 l0 67 168 169 c92 93 189 190 215 215 37 35 47 52 45 71 -2 18 -10
27 -26 29 -17 3 -60 -35 -205 -182 -100 -102 -186 -186 -190 -186 -4 0 -7 30
-7 67 l0 68 97 97 c83 83 96 101 87 116 -23 35 -45 25 -125 -54 l-79 -78 -32
29 c-18 17 -35 31 -37 32 -2 2 4 12 13 22 10 11 16 30 14 43 -4 30 -47 37 -71
10z"/>
<path d="M7563 11418 c-365 -365 -663 -665 -663 -668 0 -3 21 -5 46 -4 l46 1
644 638 c354 350 644 645 644 654 0 21 -19 41 -39 41 -8 0 -313 -298 -678
-662z"/>
<path d="M3801 11804 c-145 -148 -437 -444 -648 -657 -212 -214 -383 -391
-380 -393 2 -3 23 -6 46 -7 l41 -3 563 571 c310 313 582 591 606 617 39 43 42
50 39 94 l-3 47 -264 -269z"/>
<path d="M5754 11550 c-175 -176 -424 -427 -552 -558 l-233 -237 48 -3 48 -4
507 514 507 513 1 48 c0 26 -1 47 -3 47 -2 0 -147 -144 -323 -320z"/>
<path d="M8007 11614 c-128 -126 -376 -371 -551 -545 l-319 -317 49 -4 49 -5
523 521 c287 286 522 529 522 538 0 10 -9 22 -21 28 -18 10 -43 -11 -252 -216z"/>
<path d="M3536 11288 l-526 -533 47 -3 48 -4 483 488 482 488 0 48 c0 26 -2
48 -4 48 -2 0 -241 -240 -530 -532z"/>
<path d="M5637 11185 l-429 -435 51 0 50 0 383 386 383 386 3 49 c2 27 -1 49
-5 49 -4 0 -201 -196 -436 -435z"/>
<path d="M7806 11170 l-421 -421 52 3 51 3 396 389 c218 214 396 397 396 406
0 20 -19 40 -39 40 -8 0 -204 -189 -435 -420z"/>
<path d="M4040 11546 c-143 -137 -780 -784 -780 -792 0 -5 22 -7 49 -6 l49 4
354 360 c353 360 364 373 356 433 l-3 25 -25 -24z"/>
<path d="M5759 11063 l-303 -308 50 -3 49 -4 263 267 262 266 0 45 c0 24 -4
44 -9 44 -4 0 -145 -138 -312 -307z"/>
<path d="M7925 11045 l-300 -295 55 0 55 0 274 274 c279 279 301 308 241 313
-21 2 -79 -50 -325 -292z"/>
<path d="M3776 11035 l-278 -285 50 0 50 0 234 236 233 235 3 50 c2 27 -1 49
-5 49 -4 -1 -133 -129 -287 -285z"/>
<path d="M5883 10941 c-100 -102 -180 -188 -177 -190 2 -3 24 -4 47 -3 40 3
50 11 185 145 l142 142 0 47 c0 27 -3 47 -7 47 -5 -1 -90 -85 -190 -188z"/>
<path d="M8051 10926 l-173 -174 35 -4 c20 -2 44 -1 54 3 29 11 313 292 313
310 0 19 -20 39 -40 39 -8 0 -93 -78 -189 -174z"/>
<path d="M3908 10922 c-87 -87 -158 -163 -158 -168 0 -5 22 -7 49 -6 47 4 51
7 160 117 l112 114 -3 51 -3 51 -157 -159z"/>
<path d="M2497 10482 c-87 -88 -99 -109 -72 -132 25 -21 51 -2 155 110 l102
110 -49 0 c-48 0 -50 -1 -136 -88z"/>
<path d="M2620 10359 c-113 -116 -206 -220 -208 -230 -2 -10 6 -23 19 -29 20
-11 38 4 255 221 129 129 234 237 234 241 0 5 -21 8 -47 8 l-48 0 -205 -211z"/>
<path d="M2742 10237 c-233 -233 -332 -339 -332 -354 0 -13 10 -27 22 -34 20
-11 39 6 261 232 132 134 294 299 361 367 l121 122 -50 0 -50 0 -333 -333z"/>
<path d="M3212 10462 c-57 -59 -251 -255 -430 -435 -289 -290 -335 -332 -397
-364 -38 -19 -122 -62 -185 -95 -159 -84 -296 -155 -570 -298 -129 -67 -287
-150 -350 -183 -63 -34 -145 -76 -183 -95 l-67 -33 0 -95 0 -94 85 0 85 0 0
-85 0 -85 50 0 50 0 -2 -217 -3 -216 -24 -4 c-64 -9 -106 -58 -106 -123 0 -79
48 -120 139 -120 l56 0 0 -1175 c0 -1036 -2 -1176 -15 -1181 -10 -4 -15 -20
-15 -45 0 -26 -5 -42 -15 -45 -8 -3 -20 -25 -27 -47 -7 -23 -20 -49 -30 -59
-9 -9 -22 -35 -28 -56 -5 -22 -17 -43 -25 -46 -13 -5 -15 -117 -15 -901 0
-492 4 -895 8 -895 5 0 64 -70 131 -155 l123 -155 2504 0 2504 0 0 905 c0 894
-2 955 -32 955 -4 0 -8 8 -8 19 0 32 -22 81 -36 81 -10 0 -14 12 -14 40 0 33
-3 40 -20 40 -19 0 -20 7 -20 265 0 167 4 265 10 265 5 0 59 46 120 102 l110
102 0 48 c0 26 -3 48 -7 48 -4 0 -58 -51 -120 -112 l-113 -113 0 72 0 71 120
115 c119 114 120 115 120 161 0 25 -3 46 -7 46 -4 0 -58 -51 -120 -112 l-113
-113 0 70 0 70 121 121 120 121 -3 48 -3 48 -115 -111 -115 -112 -3 68 -3 67
120 117 c120 115 121 117 121 162 0 25 -3 46 -7 46 -4 0 -58 -51 -120 -112
l-113 -113 0 70 0 70 120 120 120 120 0 50 0 50 -92 -91 c-51 -49 -105 -100
-120 -114 l-28 -23 0 65 0 65 121 119 120 120 -3 49 -3 50 -115 -112 -115
-111 -3 65 c-3 64 -2 67 33 102 19 20 35 40 35 44 0 4 -16 7 -35 7 l-35 0 0
80 0 80 46 42 c25 24 58 47 73 52 39 13 62 36 83 83 10 23 23 45 28 48 12 8
13 105 2 105 -5 0 -17 -9 -27 -20 -17 -19 -18 -19 -56 3 -21 12 -39 25 -39 30
0 4 29 35 65 68 63 60 65 64 65 110 0 27 -4 49 -8 49 -4 0 -30 -22 -57 -50
-27 -27 -53 -50 -57 -50 -4 0 -8 28 -8 62 l0 62 66 67 c64 64 65 67 62 112
l-3 47 -55 -55 c-30 -30 -58 -55 -62 -55 -5 0 -8 16 -8 35 0 31 7 40 55 78 51
39 55 45 55 84 0 23 5 45 10 48 6 3 10 28 10 56 0 27 -4 49 -10 49 -6 0 -10
30 -10 69 0 39 5 73 10 76 6 3 10 29 10 56 0 31 -4 48 -10 44 -6 -4 -10 13
-10 44 0 27 -5 53 -11 56 -7 5 -3 15 11 30 46 49 -5 87 -61 45 l-29 -21 -48
32 c-26 18 -59 42 -73 53 -14 12 -78 50 -142 85 l-117 65 0 48 c0 26 -3 48 -7
48 -4 0 -20 -12 -35 -27 l-28 -27 -47 23 -46 22 81 82 c81 81 82 83 82 132 l0
50 -113 -113 -114 -113 -39 22 c-21 13 -41 24 -44 26 -2 2 67 75 154 162 l157
157 -3 49 -3 48 -166 -164 c-92 -90 -178 -174 -192 -187 l-24 -23 -39 22 c-22
13 -40 23 -41 24 -2 1 103 107 232 235 l235 234 0 48 c0 26 -3 48 -7 48 -5 0
-126 -118 -271 -262 l-262 -263 -37 20 c-20 11 -38 25 -40 31 -2 6 136 148
307 315 l310 304 0 47 c0 27 -3 48 -8 48 -4 0 -160 -153 -346 -339 l-340 -340
-28 15 c-15 8 -28 18 -28 21 0 4 152 160 339 348 423 425 411 411 411 464 0
22 -3 41 -7 41 -5 1 -188 -182 -408 -406 -436 -443 -412 -424 -474 -376 l-24
19 454 457 c250 252 455 466 457 477 3 16 -3 19 -33 19 -34 0 -58 -23 -491
-459 l-455 -459 -45 25 -45 25 243 247 c133 135 325 329 425 431 l183 185 -47
3 -48 4 -412 -417 -412 -417 -41 23 c-22 12 -40 26 -40 31 0 5 168 177 373
384 204 207 374 380 375 385 2 5 -18 9 -44 9 l-48 0 -353 -357 -352 -358 0 68
-1 69 281 286 281 287 -49 3 -48 4 -228 -231 c-125 -127 -230 -231 -232 -231
-3 0 -5 30 -5 68 l0 67 155 155 c85 85 155 158 155 162 0 5 -20 8 -44 8 -43 0
-47 -3 -147 -105 -57 -58 -107 -105 -111 -105 -14 0 -9 138 5 147 6 4 23 20
36 36 l24 27 -106 0 -107 0 0 -340 0 -340 -57 32 c-76 41 -79 44 -59 63 16 16
24 105 9 105 -4 0 -28 -20 -53 -44 l-45 -45 -43 26 -44 26 96 96 c91 91 96 99
96 138 0 23 -4 44 -9 47 -4 3 -59 -46 -120 -109 -62 -63 -114 -115 -117 -115
-2 0 -4 30 -4 67 l0 66 126 127 c116 118 125 130 122 161 -2 19 -9 34 -16 34
-7 0 -62 -49 -122 -110 l-110 -110 0 71 c0 67 2 72 35 104 19 19 35 38 35 42
0 4 -49 8 -110 8 l-110 0 0 -200 0 -200 -50 25 -50 25 0 57 0 57 -35 -34 -35
-34 -45 22 c-25 12 -45 25 -45 30 0 4 36 43 80 87 76 75 80 82 80 123 0 24 -4
42 -10 40 -5 -1 -57 -50 -115 -107 l-105 -105 -33 16 c-30 15 -35 14 -72 -4
-35 -17 -26 -6 63 84 56 57 102 107 102 111 0 4 -22 7 -48 7 l-48 0 -171 -173
-171 -172 -134 -69 -133 -69 75 79 c41 44 147 152 235 242 l160 162 -51 0 -51
0 -297 -300 c-321 -323 -281 -291 -524 -422 -29 -15 -55 -28 -58 -28 -2 0 159
165 358 366 200 201 365 370 366 375 2 5 -18 9 -45 8 -48 -1 -49 -1 -151 -107z
m854 -263 c159 -89 375 -209 479 -266 105 -58 280 -156 390 -218 110 -62 286
-160 390 -217 166 -92 759 -422 930 -518 33 -19 62 -37 65 -41 3 -4 4 -39 2
-78 l-4 -71 -2634 0 -2634 0 0 78 0 77 83 43 c45 23 197 102 337 174 140 72
338 175 440 228 330 173 433 227 580 303 80 41 192 99 250 129 58 30 290 151
515 269 226 117 433 226 460 240 28 15 53 28 56 28 4 1 136 -72 295 -160z
m2012 -1821 l-3 -213 -315 -6 c-173 -3 -866 -4 -1540 -2 -1638 4 -1726 4
-2085 1 -170 -1 -423 -1 -562 0 l-252 2 -3 215 -3 215 2383 0 2382 0 -2 -212z
m-4248 -258 c28 -15 53 -68 45 -97 -3 -14 -17 -36 -30 -49 -20 -20 -34 -24
-80 -24 -75 0 -95 12 -95 56 0 44 35 64 80 47 23 -8 32 -8 40 2 8 10 4 18 -16
34 -31 25 -86 27 -127 6 -40 -20 -161 -21 -220 -1 -66 22 -101 20 -134 -8 -22
-20 -26 -27 -15 -37 9 -10 15 -10 24 -1 18 18 69 15 84 -5 20 -27 17 -71 -5
-83 -11 -5 -45 -10 -76 -10 -46 0 -60 4 -80 24 -32 32 -40 68 -23 103 26 55
46 58 341 56 162 -2 276 -7 287 -13z m1193 -15 c45 -42 35 -114 -20 -143 -37
-20 -120 -15 -143 8 -24 24 -25 38 -4 68 16 24 53 29 85 12 30 -17 39 18 10
42 -28 22 -78 23 -130 2 -45 -18 -162 -15 -247 6 -59 15 -99 8 -115 -21 -9
-17 -8 -23 2 -30 8 -4 18 -4 23 1 15 15 63 12 80 -6 21 -20 20 -53 -1 -76 -12
-14 -31 -18 -75 -18 -52 0 -63 4 -89 29 -42 43 -35 115 15 139 13 7 130 11
301 11 l280 1 28 -25z m1927 10 c51 -26 65 -82 34 -130 -32 -49 -147 -58 -178
-14 -19 28 -14 49 17 73 23 17 29 17 57 6 24 -10 34 -10 43 -1 9 10 7 17 -12
32 -36 30 -68 33 -129 14 -64 -19 -184 -17 -264 5 -52 14 -101 2 -113 -28 -9
-24 9 -34 37 -21 36 16 82 -7 86 -42 8 -72 -123 -93 -180 -29 -42 45 -31 106
23 136 38 20 539 20 579 -1z m1210 -2 c75 -44 57 -140 -32 -163 -54 -15 -107
-3 -120 26 -24 51 32 101 82 74 17 -9 25 -9 34 0 8 9 4 17 -17 36 -32 28 -72
31 -124 9 -46 -19 -175 -19 -228 0 -60 21 -100 19 -132 -9 -22 -20 -25 -27
-16 -37 10 -10 18 -10 38 -1 35 16 51 15 69 -4 20 -19 21 -68 3 -83 -41 -33
-145 -18 -174 25 -33 51 -5 127 51 137 11 2 137 5 279 6 228 1 261 0 287 -16z
m-3431 -72 l90 4 -6 -26 c-5 -28 20 -89 37 -89 7 0 9 -416 8 -1182 l-3 -1183
-142 -3 -143 -3 0 1184 c0 1171 0 1184 20 1202 15 13 20 31 20 68 0 42 2 48
15 37 10 -8 43 -11 104 -9z m-1094 -27 c-4 -25 0 -39 20 -62 l25 -30 0 -1181
0 -1182 -142 3 -143 3 -3 1178 -2 1178 21 28 c15 20 20 40 17 63 l-3 33 108 0
108 0 -6 -31z m3128 -4 c-4 -28 0 -43 21 -67 l26 -31 0 -1181 0 -1181 -145 0
-145 0 0 1190 c0 685 4 1190 9 1190 18 0 42 67 32 92 l-9 23 108 0 107 0 -4
-35z m1207 -11 c0 -28 7 -46 23 -62 l22 -22 -1 -1170 c-1 -643 -2 -1176 -3
-1183 -1 -10 -33 -12 -143 -10 l-143 3 -3 1179 -2 1178 26 31 c19 23 25 39 22
66 l-3 36 102 -3 103 -3 0 -40z m-2157 -329 c121 -18 259 -93 358 -195 101
-104 171 -254 186 -396 l6 -59 -52 0 -51 0 0 33 c0 56 -35 172 -73 239 -45 80
-156 187 -237 228 -33 17 -92 37 -131 45 -266 56 -513 -65 -638 -312 -24 -48
-51 -152 -51 -200 0 -33 0 -33 -50 -33 -50 0 -50 0 -50 33 1 62 29 167 68 249
80 168 225 293 407 351 83 27 197 33 308 17z m-1273 -1055 c0 -920 -2 -1046
-15 -1051 -10 -4 -15 -19 -15 -43 0 -25 -6 -40 -19 -48 -11 -7 -22 -27 -26
-45 -4 -18 -15 -42 -25 -53 -10 -11 -24 -39 -31 -62 l-12 -43 -179 0 -178 0 0
1125 0 1125 53 -6 c86 -10 157 41 157 112 l0 34 145 0 145 0 0 -1045z m3148
-12 c2 -932 0 -1053 -13 -1053 -10 0 -15 -10 -15 -34 0 -18 -7 -39 -14 -46 -8
-6 -20 -28 -27 -48 -7 -20 -20 -48 -30 -61 -10 -12 -21 -38 -25 -57 l-6 -34
-219 0 -219 0 0 1125 0 1124 49 -6 c93 -11 161 38 161 116 l0 31 178 -2 177
-3 3 -1052z m-1208 -328 c0 -477 -3 -725 -10 -725 -5 0 -10 -15 -10 -33 0 -21
-8 -41 -19 -51 -11 -10 -23 -32 -26 -48 -4 -17 -15 -38 -26 -49 -10 -10 -21
-31 -25 -46 -3 -16 -7 -34 -10 -40 -3 -10 -123 -13 -559 -13 l-555 0 0 865 0
865 620 0 620 0 0 -725z m-2762 -772 l3 -23 -180 0 -181 0 0 25 0 25 178 -2
c175 -3 177 -3 180 -25z m1172 2 l0 -25 -175 0 -175 0 0 25 0 25 175 0 175 0
0 -25z m3160 0 l0 -25 -180 0 -180 0 0 25 0 25 180 0 180 0 0 -25z m-4292 -87
l3 -28 -220 0 c-233 0 -232 0 -215 44 6 14 31 16 218 14 l211 -3 3 -27z m1176
7 c4 -14 5 -29 2 -33 -2 -4 -103 -6 -225 -4 -188 2 -219 5 -216 17 3 8 7 22
10 30 4 13 36 15 214 15 l209 0 6 -25z m1950 -7 c3 -13 6 -26 6 -30 0 -5 -101
-8 -225 -8 -124 0 -225 3 -225 8 0 4 3 17 6 30 6 22 7 22 219 22 212 0 213 0
219 -22z m1206 8 c0 -8 3 -21 6 -30 5 -14 -18 -16 -220 -16 -238 0 -237 0
-220 44 5 14 34 16 220 16 178 0 214 -2 214 -14z m-4290 -102 c6 -14 10 -27
10 -30 0 -2 -124 -4 -275 -4 -151 0 -275 2 -275 5 0 2 5 16 12 30 l11 25 254
0 253 0 10 -26z m1178 -6 l3 -28 -270 0 c-149 0 -271 2 -271 5 0 2 5 16 12 30
l11 25 256 -2 256 -3 3 -27z m1942 15 c4 -4 11 -18 15 -30 l6 -23 -275 0
c-292 0 -294 0 -262 45 13 19 25 20 261 18 136 -1 251 -5 255 -10z m1211 -10
c5 -14 8 -28 5 -30 -6 -6 -527 -5 -533 1 -10 9 8 45 25 49 9 3 124 5 255 5
l238 0 10 -25z m-21 -148 l0 -65 -2444 0 -2444 0 -4 65 -3 65 1000 2 c550 2
1651 2 2448 0 l1447 -2 0 -65z m-2 -127 l3 -38 -2445 0 -2446 0 0 40 0 39
2443 -2 2442 -2 3 -37z m-4065 -190 c4 -73 10 -161 13 -195 l7 -63 -82 0 c-70
0 -81 2 -82 18 0 9 -2 24 -3 32 -2 8 -6 42 -10 75 -12 106 26 95 -342 95
l-324 0 0 85 0 85 409 0 408 0 6 -132z m187 105 c0 -16 -7 -95 -15 -178 -8
-82 -15 -158 -15 -167 0 -15 -9 -18 -57 -18 -56 0 -58 1 -60 27 -1 24 -18 230
-27 331 l-3 32 88 0 89 0 0 -27z m1146 -33 c64 -155 145 -362 142 -364 -37
-27 -81 -47 -88 -40 -4 5 -25 32 -46 60 -103 135 -139 181 -162 207 l-26 27
-386 0 c-287 0 -389 -3 -398 -12 -7 -7 -12 -28 -12 -49 0 -20 -3 -64 -6 -98
l-7 -61 -84 0 -83 0 5 38 c10 75 25 257 25 304 l0 48 551 -2 552 -3 23 -55z
m199 3 c4 -32 17 -119 29 -194 l22 -137 -39 -12 c-21 -6 -41 -9 -44 -6 -7 7
-163 391 -163 402 0 2 42 4 94 4 l95 0 6 -57z m225 49 c0 -5 -11 -76 -25 -158
-14 -82 -27 -164 -30 -181 -6 -31 -8 -33 -50 -33 -39 0 -44 3 -49 28 -12 60
-45 260 -51 305 l-6 47 106 0 c58 0 105 -4 105 -8z m210 5 c0 -6 -161 -402
-165 -405 -2 -2 -22 2 -45 9 -34 10 -40 16 -36 33 6 25 43 252 51 319 l6 47
95 0 c52 0 94 -1 94 -3z m1144 -34 c3 -21 10 -92 16 -158 6 -66 13 -137 16
-157 l6 -38 -85 0 -84 0 -12 93 c-7 50 -15 100 -17 110 -5 16 -31 17 -411 15
l-406 -3 -99 -130 c-55 -71 -107 -138 -118 -149 -19 -19 -25 -17 -89 30 -2 2
34 98 80 213 l84 211 557 0 556 0 6 -37z m196 -15 c0 -52 -16 -242 -26 -305
-5 -33 -5 -33 -64 -33 -50 0 -58 2 -56 18 2 9 -3 80 -10 157 -7 77 -13 157
-13 178 l-1 37 85 0 85 0 0 -52z m760 -33 l0 -85 -277 0 c-153 0 -284 -4 -291
-8 -7 -5 -17 -52 -24 -110 l-12 -102 -79 0 -79 0 6 93 c3 50 9 138 12 195 l7
102 368 0 369 0 0 -85z m-4257 -132 c3 -10 8 -40 12 -68 3 -27 8 -62 11 -77
l6 -28 -331 0 -331 0 0 95 0 95 314 0 c291 0 315 -1 319 -17z m1439 -104 c51
-67 101 -133 112 -146 19 -24 19 -24 -14 -58 l-33 -34 -126 85 -126 84 -353 0
c-332 0 -353 1 -348 18 2 9 7 44 11 77 3 33 8 68 11 78 5 16 32 17 389 17
l384 0 93 -121z m1692 79 c3 -24 8 -67 11 -95 l6 -53 -362 0 -361 0 -127 -85
-126 -86 -27 33 c-15 18 -26 39 -23 45 2 7 51 73 107 147 l103 135 397 0 397
1 5 -42z m1126 -53 l0 -95 -290 0 c-225 0 -290 3 -290 13 0 6 5 49 12 95 l11
82 279 0 278 0 0 -95z m-4232 -212 l-3 -98 -327 -3 -327 -2 -3 100 -3 100 333
0 333 0 -3 -97z m1266 65 c28 -17 83 -54 121 -82 39 -27 72 -51 74 -52 4 -3
-48 -114 -54 -114 -3 0 -52 18 -110 40 l-105 40 -335 0 -335 0 0 100 0 100
347 0 346 0 51 -32z m1856 -68 l0 -100 -343 0 -343 0 -108 -41 c-60 -22 -109
-39 -111 -37 -1 2 -14 26 -29 55 l-26 52 63 44 c34 24 89 62 122 85 l60 41
358 0 357 1 0 -100z m1110 0 l0 -100 -292 2 -293 3 -3 98 -3 97 296 0 295 0 0
-100z m-4230 -215 l0 -95 -330 0 -330 0 0 95 0 95 330 0 330 0 0 -95z m1290
53 c99 -37 111 -44 106 -62 -3 -12 -6 -36 -6 -54 l0 -32 -432 2 -433 3 -3 93
-3 92 330 0 330 0 111 -42z m1830 -53 l0 -95 -439 0 c-488 0 -451 -6 -451 70
l0 38 103 40 102 41 343 0 342 1 0 -95z m1110 0 l0 -95 -295 0 -295 0 0 95 0
95 295 0 295 0 0 -95z m-4232 -207 l3 -88 -330 0 c-181 0 -332 3 -335 8 -2 4
-2 45 1 90 l6 82 326 -2 326 -3 3 -87z m1387 2 l0 -85 -432 -3 -433 -2 0 83
c0 46 3 87 7 90 3 4 198 6 432 5 l426 -3 0 -85z m1735 0 l0 -90 -440 0 -440 0
0 83 c0 46 3 87 7 90 3 4 201 7 440 7 l433 0 0 -90z m1108 -2 l3 -88 -296 0
-295 0 0 83 c0 46 3 87 7 90 4 4 135 6 292 5 l286 -3 3 -87z m-4228 -203 l0
-95 -332 2 -331 3 -1 93 -1 92 333 0 332 0 0 -95z m1390 0 l0 -95 -432 2 -433
3 -3 93 -3 92 436 0 435 0 0 -95z m1730 0 l0 -95 -440 0 -440 0 0 95 0 95 440
0 440 0 0 -95z m1110 0 l0 -95 -292 2 -293 3 -3 93 -3 92 296 0 295 0 0 -95z
m-2842 -242 l3 -123 -998 -2 c-549 -2 -1013 -2 -1030 0 l-33 3 0 118 c0 65 3
121 7 124 3 4 466 6 1027 5 l1021 -3 3 -122z m2842 0 l0 -123 -995 0 -995 0 0
118 c0 65 3 121 6 125 3 3 451 5 995 4 l989 -1 0 -123z"/>
<path d="M3290 9942 c-256 -131 -580 -297 -720 -369 -140 -71 -469 -240 -730
-374 l-475 -244 1163 -3 c640 -1 1684 -1 2320 0 l1155 3 -129 70 c-71 39 -158
86 -194 106 -36 20 -144 79 -240 131 -96 53 -195 107 -220 120 -25 14 -166 92
-315 173 -148 81 -313 171 -365 200 -193 107 -758 415 -771 420 -8 3 -223
-102 -479 -233z m618 47 c31 -18 91 -51 132 -74 41 -23 156 -86 255 -140 99
-54 275 -150 390 -213 116 -63 239 -131 275 -150 36 -20 81 -44 100 -55 19
-11 179 -98 355 -194 176 -97 324 -179 329 -184 6 -5 -327 -9 -800 -9 -445 -1
-1337 -3 -1982 -6 -645 -3 -1179 -3 -1187 0 -9 3 160 94 393 212 376 191 606
307 1372 698 157 80 291 146 298 146 7 0 39 -14 70 -31z"/>
<path d="M3397 6563 c-4 -3 -7 -210 -7 -460 l0 -453 280 0 280 0 -2 458 -3
457 -271 3 c-149 1 -273 -1 -277 -5z"/>
<path d="M6177 10563 c-4 -4 -7 -337 -7 -740 l1 -733 79 0 c58 0 80 4 80 13 0
7 54 66 120 132 120 119 120 120 120 167 0 27 -2 48 -5 48 -3 0 -55 -50 -117
-111 l-113 -110 -3 64 -3 65 121 117 120 118 0 49 c0 26 -3 48 -7 48 -4 0 -58
-51 -120 -112 l-113 -113 0 71 0 70 120 114 120 114 0 48 c0 26 -3 48 -7 48
-4 0 -58 -51 -120 -112 l-113 -113 0 70 0 70 120 120 120 120 0 50 0 50 -120
-120 -120 -120 0 70 0 70 121 121 120 121 -3 49 -3 49 -110 -112 c-61 -62
-114 -113 -118 -113 -4 0 -7 28 -7 63 l0 62 115 115 c63 63 115 118 115 122 0
5 -21 8 -47 8 -45 0 -51 -3 -116 -67 l-69 -68 4 68 4 67 -76 0 c-42 0 -80 -3
-83 -7z"/>
<path d="M6670 9830 l0 -740 75 0 c55 0 75 4 75 13 0 11 519 530 1265 1264
102 100 185 187 185 193 0 7 -16 10 -44 8 -44 -3 -48 -7 -721 -673 -372 -368
-681 -671 -686 -673 -5 -2 -9 26 -9 61 l0 65 128 129 c71 70 345 343 610 605
265 262 482 480 482 483 0 3 -22 5 -49 3 l-49 -3 -552 -547 c-304 -302 -556
-548 -561 -548 -5 0 -9 28 -9 62 l0 63 493 487 492 487 -51 0 -52 1 -432 -427
c-238 -236 -437 -430 -442 -431 -5 -2 -6 25 -3 65 l6 68 360 357 c197 196 359
359 359 362 0 3 -21 6 -47 6 l-48 0 -312 -312 -313 -313 0 70 0 70 242 242
243 243 -50 0 -50 0 -188 -185 c-103 -102 -189 -185 -192 -185 -3 0 -5 29 -5
65 l0 64 115 117 c63 64 115 118 115 120 0 2 -21 4 -47 4 -45 0 -51 -3 -115
-67 l-68 -67 0 67 0 67 -75 0 -75 0 0 -740z"/>
<path d="M7762 9907 c-257 -254 -548 -542 -647 -640 l-180 -177 53 0 54 0 619
612 c354 350 619 620 619 630 0 15 -27 38 -45 38 -3 0 -216 -208 -473 -463z"/>
<path d="M7705 9605 l-520 -514 52 -1 52 0 497 493 c434 430 496 495 490 515
-5 14 -15 22 -29 22 -15 0 -179 -155 -542 -515z"/>
<path d="M8209 9859 c-30 -25 -769 -762 -769 -766 0 -2 21 -3 48 -3 l47 1 373
368 c204 202 372 374 372 382 0 18 -19 39 -35 39 -7 0 -23 -9 -36 -21z"/>
<path d="M7952 9360 l-272 -270 53 0 52 0 249 249 c254 254 275 282 216 289
-21 2 -72 -44 -298 -268z"/>
<path d="M8076 9240 l-151 -150 52 0 53 0 126 123 c116 112 127 125 120 150
-13 53 -42 35 -200 -123z"/>
<path d="M6670 8165 l0 -745 83 0 82 0 290 286 c694 684 1155 1146 1155 1158
0 18 -26 38 -44 34 -13 -3 -1242 -1210 -1365 -1340 -24 -27 -48 -48 -52 -48
-5 0 -8 29 -8 64 l1 64 441 439 c243 241 529 524 635 628 105 104 192 193 192
198 0 4 -22 7 -50 5 l-49 -3 -408 -404 c-224 -223 -488 -484 -585 -580 l-177
-175 0 68 1 69 509 505 c280 277 509 508 509 513 0 5 -20 9 -44 9 l-44 0 -457
-452 c-252 -249 -461 -454 -465 -456 -4 -2 -7 28 -6 65 l2 68 387 380 c213
209 387 384 387 388 0 10 -82 9 -98 -1 -7 -5 -160 -155 -340 -333 l-327 -324
-3 66 -3 67 261 258 c143 141 260 261 260 266 0 4 -21 8 -47 8 l-46 0 -214
-212 -213 -212 0 70 0 69 135 135 c74 74 135 137 135 141 0 3 -19 6 -42 7 -41
2 -47 -2 -133 -84 l-90 -86 -3 62 c-2 46 1 67 13 79 8 10 12 21 8 24 -3 4 -44
7 -90 7 l-83 0 0 -745z"/>
<path d="M7708 8142 c-288 -284 -567 -559 -621 -611 -53 -52 -97 -99 -97 -103
0 -5 22 -8 49 -6 l49 3 596 589 c443 438 596 594 594 609 -2 11 -13 23 -25 28
-20 7 -83 -52 -545 -509z"/>
<path d="M7732 7922 c-271 -268 -493 -490 -492 -494 0 -10 82 -10 97 0 30 19
943 935 943 946 0 17 -21 36 -39 36 -9 0 -238 -220 -509 -488z"/>
<path d="M7857 7803 c-202 -203 -368 -370 -368 -373 1 -3 19 -6 41 -8 l41 -3
354 347 c195 191 355 355 355 364 0 20 -19 40 -39 40 -8 0 -181 -165 -384
-367z"/>
<path d="M8097 7792 c-78 -77 -193 -190 -254 -250 -62 -60 -113 -112 -113
-116 0 -3 21 -6 48 -6 l47 0 225 224 c124 124 226 234 228 245 2 12 -5 24 -18
31 -20 11 -34 0 -163 -128z"/>
<path d="M8105 7559 c-69 -67 -125 -126 -125 -130 0 -5 21 -9 48 -9 47 0 48 1
150 103 56 56 102 109 102 118 0 19 -19 39 -37 39 -8 0 -70 -55 -138 -121z"/>
<path d="M6670 6505 l0 -745 61 0 c40 0 65 -5 75 -15 9 -8 20 -15 26 -15 6 0
102 89 212 198 649 639 1186 1164 1209 1182 30 24 35 51 12 70 -29 24 13 63
-626 -565 -578 -568 -812 -795 -819 -795 -4 0 -8 27 -9 59 l-2 59 661 648
c363 356 660 651 660 656 0 4 -21 8 -47 8 l-46 0 -261 -258 c-436 -430 -797
-785 -881 -865 l-80 -77 -3 62 -3 62 535 529 c295 291 536 533 536 538 0 5
-19 9 -42 9 -49 -1 -36 11 -668 -614 -173 -171 -324 -319 -336 -329 -21 -17
-21 -17 -23 46 l-2 64 415 409 c228 224 412 412 410 416 -7 10 -75 10 -92 0
-7 -5 -169 -165 -361 -355 -192 -191 -351 -347 -355 -347 -3 0 -6 30 -6 68 l0
67 285 279 c157 154 285 283 285 288 0 4 -21 8 -47 8 l-47 0 -238 -237 -238
-237 0 69 0 70 160 160 c88 88 160 163 160 167 0 5 -19 8 -41 8 -40 0 -48 -6
-158 -112 l-116 -113 -3 64 c-3 62 -2 65 32 100 56 57 51 61 -74 61 l-110 0 0
-745z"/>
<path d="M8189 6907 c-341 -332 -1047 -1014 -1087 -1052 -30 -28 -58 -58 -63
-67 -17 -32 16 -68 46 -50 8 4 76 68 152 142 76 75 215 210 308 300 613 594
735 715 735 730 0 19 -19 40 -35 40 -7 0 -32 -19 -56 -43z"/>
<path d="M8130 6608 c-334 -324 -788 -759 -815 -779 -32 -26 -47 -53 -39 -73
7 -19 32 -28 49 -19 7 5 107 98 221 208 195 187 282 270 607 583 70 67 127
128 127 135 0 18 -21 37 -39 37 -9 0 -59 -42 -111 -92z"/>
<path d="M8048 6288 c-101 -95 -188 -177 -194 -183 -6 -5 -83 -79 -172 -164
-116 -110 -162 -160 -162 -176 0 -19 17 -35 35 -35 8 0 111 94 285 260 96 92
235 222 308 290 72 68 132 131 132 140 0 19 -19 40 -36 40 -7 0 -95 -77 -196
-172z"/>
<path d="M8006 6012 c-131 -116 -238 -217 -242 -230 -4 -16 -1 -29 9 -39 14
-15 18 -15 39 -1 27 19 211 182 361 321 108 100 124 127 88 147 -17 9 -51 -18
-255 -198z"/>
<path d="M8118 5882 c-119 -92 -138 -121 -98 -142 19 -10 27 -7 58 18 21 16
74 57 120 91 88 66 102 95 55 112 -18 7 -41 -7 -135 -79z"/>
<path d="M1465 2603 c-117 -42 -196 -111 -244 -212 -23 -49 -26 -68 -26 -161
0 -97 2 -110 31 -170 17 -36 51 -85 75 -110 25 -25 101 -105 169 -178 101
-109 135 -138 187 -164 140 -69 317 -40 436 70 15 14 27 30 27 35 0 12 -349
387 -361 387 -5 0 -29 -16 -55 -35 -77 -59 -90 -43 -40 50 49 91 175 129 266
80 14 -8 40 -28 59 -45 21 -19 45 -30 62 -30 l29 0 0 -144 0 -144 108 -134
108 -133 97 -3 97 -3 0 127 0 127 100 -127 101 -126 109 0 110 0 0 384 0 384
-57 69 c-32 39 -84 102 -115 141 l-57 71 -268 1 c-147 0 -283 -2 -300 -6 l-33
-6 -2 -154 -3 -153 -135 129 c-166 159 -220 189 -343 196 -62 3 -94 0 -132
-13z m256 -37 c30 -15 72 -40 93 -58 l38 -31 -48 -48 c-48 -48 -48 -49 -68
-29 -55 50 -166 74 -233 49 -98 -36 -153 -116 -153 -222 0 -202 234 -307 380
-171 l26 24 48 -49 49 -50 -29 -26 c-16 -14 -58 -41 -94 -58 -58 -29 -74 -32
-150 -32 -154 1 -276 76 -336 207 -25 55 -28 75 -29 158 0 85 3 101 29 154 89
181 305 263 477 182z m949 -346 l0 -360 -60 0 -60 0 -2 298 -3 297 -162 3
-163 2 0 -300 0 -301 -59 3 -60 3 -6 358 -7 357 291 0 291 0 0 -360z"/>
<path d="M3360 2589 c-8 -18 -27 -37 -45 -46 -30 -14 -37 -14 -100 7 -122 40
-240 18 -323 -60 l-24 -22 97 -92 96 -91 -47 -35 c-68 -50 -94 -104 -94 -197
0 -44 6 -89 15 -110 20 -46 293 -324 355 -361 60 -36 173 -38 236 -5 55 29
108 92 126 149 l14 46 94 -106 94 -107 76 3 75 3 2 325 2 325 156 3 155 3 -13
-33 c-8 -18 -44 -99 -81 -180 -36 -81 -66 -154 -66 -162 0 -8 55 -75 122 -150
l122 -136 92 0 92 0 41 65 40 65 93 0 94 0 54 -65 55 -65 113 0 c61 0 112 4
112 8 0 9 -109 253 -120 267 -4 6 -17 33 -29 60 l-21 50 72 -76 c40 -41 106
-110 147 -153 92 -98 167 -137 276 -144 91 -6 162 14 244 69 100 67 102 58
-56 227 -201 214 -219 232 -237 232 -9 0 -16 -4 -16 -10 0 -12 -89 -64 -97
-56 -12 11 28 93 60 123 41 39 120 67 166 58 47 -9 101 -37 130 -69 17 -18 35
-26 58 -26 39 0 53 25 53 96 0 44 -1 46 -142 184 -117 114 -157 147 -218 178
-70 35 -79 37 -170 37 -87 0 -101 -3 -161 -33 -120 -58 -205 -174 -225 -308
l-6 -41 -87 91 c-48 50 -125 132 -171 181 -47 50 -91 94 -98 98 -16 10 -62 1
-62 -13 0 -5 -21 -57 -47 -115 l-47 -105 -121 120 -122 120 -256 0 c-140 0
-262 -3 -271 -6 -12 -5 -16 -21 -16 -72 l0 -67 -52 77 -53 77 -61 1 c-59 0
-62 -1 -74 -31z m110 -6 c-1 -28 -35 -96 -61 -120 -53 -48 -116 -54 -212 -22
-77 26 -132 21 -181 -16 l-35 -27 -40 34 c-37 30 -38 34 -24 50 9 10 38 29 66
43 60 30 149 33 212 8 94 -36 148 -25 180 37 13 26 21 30 55 30 32 0 40 -4 40
-17z m1971 -22 c62 -29 119 -71 119 -88 0 -5 -20 -28 -44 -52 l-44 -43 -24 22
c-56 54 -153 74 -229 49 -118 -40 -188 -181 -144 -295 59 -155 232 -207 362
-109 l35 28 46 -46 46 -46 -24 -26 c-14 -15 -54 -41 -90 -58 -58 -29 -74 -32
-155 -32 -81 0 -96 3 -157 33 -80 39 -158 120 -183 189 -25 74 -30 187 -11
253 32 108 118 193 239 238 84 31 169 25 258 -17z m-1311 -41 l0 -60 -200 0
-200 0 0 -300 0 -300 -55 0 -55 0 0 360 0 360 255 0 255 0 0 -60z m445 -22
c21 -46 54 -117 73 -158 19 -41 64 -138 99 -215 36 -77 78 -168 94 -202 l28
-63 -73 0 -72 0 -15 48 -15 47 -166 3 -165 2 -21 -50 -21 -50 -65 0 c-37 0
-66 2 -66 4 0 3 194 448 277 634 25 54 43 82 53 82 11 0 30 -29 55 -82z m-975
-360 l0 -153 -95 95 c-52 52 -95 97 -95 100 0 3 28 13 61 23 42 12 72 29 93
51 17 19 32 34 34 35 1 0 2 -68 2 -151z m-352 126 c87 -36 142 -119 142 -215
0 -76 -19 -118 -76 -168 -115 -101 -283 -70 -352 66 -30 58 -36 110 -19 164
40 132 184 204 305 153z"/>
<path d="M4518 2363 c-9 -2 -21 -16 -27 -31 -18 -46 -91 -257 -91 -264 0 -5
56 -8 125 -8 76 0 125 4 125 10 0 5 -17 56 -39 112 -21 57 -44 120 -50 140
-14 42 -18 46 -43 41z"/>
<path d="M3092 2160 c-34 -21 -62 -72 -62 -112 0 -61 69 -128 132 -128 40 0
93 28 112 60 19 33 21 106 2 138 -33 60 -122 80 -184 42z"/>
<path d="M5685 2600 c-7 -11 5 -34 130 -260 52 -94 95 -174 95 -175 0 -2 16
-32 36 -65 l36 -62 -17 -44 -17 -44 -59 0 c-40 0 -59 -4 -60 -12 0 -7 -1 -42
-2 -78 l-1 -64 105 -118 104 -117 104 2 c80 2 106 5 112 17 5 8 50 105 100
215 50 110 102 225 116 255 41 87 143 313 143 316 0 1 -6 9 -14 17 -8 7 -53
58 -101 113 -48 54 -93 103 -101 107 -7 4 -46 7 -86 5 l-73 -3 -55 -122 c-30
-68 -57 -123 -61 -123 -4 0 -66 56 -137 125 l-130 125 -80 0 c-45 0 -84 -4
-87 -10z m185 -55 c9 -16 54 -103 101 -192 46 -90 88 -163 94 -163 5 0 49 87
97 193 l86 192 61 3 c34 2 61 1 61 0 0 -2 -39 -89 -86 -193 -47 -105 -103
-228 -124 -275 -21 -47 -61 -133 -89 -192 l-50 -108 -86 0 -85 0 0 60 c0 66
-1 65 73 61 35 -2 39 1 57 41 11 24 20 51 20 60 0 10 -21 55 -46 100 -26 46
-64 117 -86 158 -41 76 -76 140 -130 238 l-30 53 73 -3 c69 -3 73 -4 89 -33z"/>
<path d="M2860 1263 c-8 -3 -23 -12 -32 -21 -10 -8 -41 -20 -70 -27 -42 -9
-53 -16 -53 -31 0 -16 9 -20 50 -24 l50 -5 3 -137 c3 -145 -4 -168 -49 -168
-14 0 -19 -7 -19 -25 l0 -25 136 0 c133 0 135 0 132 22 -2 14 -13 24 -32 29
-16 5 -33 14 -37 21 -5 7 -9 100 -9 206 l0 192 -27 -1 c-16 0 -35 -3 -43 -6z"/>
<path d="M3277 1256 c-70 -19 -107 -59 -107 -114 0 -35 6 -49 30 -73 l30 -30
-39 -37 c-49 -46 -59 -82 -38 -128 27 -56 75 -73 215 -75 100 -1 127 2 165 19
88 39 109 123 47 187 -19 19 -40 35 -47 35 -19 0 -17 4 22 43 58 58 44 123
-35 162 -45 23 -179 29 -243 11z m118 -287 c55 -20 85 -42 85 -60 0 -5 -15
-18 -32 -30 -67 -41 -198 -7 -198 52 0 21 46 59 71 59 10 0 43 -9 74 -21z"/>
<path d="M3854 1246 c-61 -28 -84 -58 -84 -106 0 -55 23 -80 74 -80 23 0 50 6
60 13 27 19 17 58 -19 77 -16 8 -32 16 -34 18 -3 1 4 11 15 22 23 24 98 34
128 18 53 -28 63 -93 20 -127 -15 -12 -33 -21 -40 -21 -9 0 -14 -11 -14 -29 0
-25 5 -30 27 -33 35 -4 68 -48 59 -82 -13 -51 -100 -76 -157 -45 l-23 12 28
22 c35 28 32 64 -7 83 -57 28 -117 -12 -117 -77 0 -32 6 -44 35 -69 37 -33 59
-39 176 -45 88 -5 138 9 180 49 53 51 46 139 -14 179 l-24 16 33 33 c38 38 43
70 18 117 -38 74 -215 104 -320 55z"/>
<path d="M4433 1246 c-66 -31 -92 -75 -77 -133 11 -46 49 -68 99 -59 41 8 59
29 51 60 -4 17 -15 26 -36 31 -41 9 -44 18 -14 46 19 18 36 23 70 23 106 -2
117 -106 18 -167 -16 -10 -56 -35 -90 -56 -70 -45 -97 -88 -92 -154 3 -40 4
-42 32 -39 16 2 36 10 43 18 18 18 32 18 89 -2 60 -20 155 -22 189 -4 35 19
55 59 55 110 l0 40 -40 0 c-38 0 -40 -1 -40 -31 l0 -32 -57 8 c-70 9 -149 9
-163 0 -5 -3 -10 -4 -10 -1 0 8 70 42 145 71 85 32 124 60 141 101 48 114 -26
188 -191 193 -56 1 -80 -3 -122 -23z"/>
</g>
</svg>
